<svg width="15" height="15" viewBox="0 0 15 15" fill="none" xmlns="http://www.w3.org/2000/svg">
<path d="M13.5775 7.5C13.8108 7.5 14.0014 7.68938 13.9863 7.92223C13.9097 9.09902 13.5141 10.2357 12.8382 11.2086C12.0818 12.2974 11.0105 13.1288 9.76809 13.5914C8.52567 14.0541 7.17149 14.1257 5.8872 13.7967C4.6029 13.4678 3.4499 12.754 2.58284 11.7511C1.71579 10.7482 1.17614 9.50409 1.03627 8.18573C0.896409 6.86738 1.16302 5.53778 1.80035 4.37526C2.43768 3.21275 3.41524 2.27292 4.60193 1.68182C5.66226 1.15367 6.84423 0.926502 8.01974 1.02081C8.25233 1.03947 8.41217 1.25543 8.37845 1.48632V1.48632C8.34472 1.71721 8.13017 1.87538 7.89741 1.85898C6.89281 1.78819 5.8847 1.98689 4.97868 2.43818C3.94626 2.95244 3.09578 3.77009 2.5413 4.78148C1.98683 5.79287 1.75488 6.94962 1.87656 8.09659C1.99824 9.24356 2.46773 10.3259 3.22207 11.1984C3.97641 12.071 4.97952 12.692 6.09686 12.9782C7.2142 13.2643 8.39233 13.202 9.47324 12.7996C10.5542 12.3971 11.4861 11.6737 12.1442 10.7265C12.7217 9.89521 13.0641 8.9264 13.1392 7.92212C13.1566 7.68943 13.3442 7.5 13.5775 7.5V7.5Z" fill="black"/>
<path d="M2.80057 7.49999C2.5619 7.49999 2.36652 7.30615 2.38659 7.06831C2.46205 6.17436 2.77089 5.31305 3.28562 4.57215C3.88279 3.71258 4.72853 3.05616 5.70939 2.69095C6.69025 2.32573 7.75934 2.26918 8.77325 2.52888C9.78717 2.78858 10.6974 3.35211 11.382 4.14388C12.0665 4.93565 12.4925 5.91781 12.6029 6.95862C12.7133 7.99943 12.5029 9.04911 11.9997 9.96688C11.4966 10.8847 10.7248 11.6266 9.78794 12.0933C8.98041 12.4955 8.08351 12.6766 7.18804 12.6221C6.9498 12.6076 6.78623 12.3862 6.82073 12.1501V12.1501C6.85523 11.9139 7.07482 11.7527 7.31327 11.7632C8.03368 11.7947 8.75291 11.6432 9.40257 11.3196C10.1816 10.9316 10.8234 10.3146 11.2418 9.55137C11.6602 8.78819 11.8352 7.9153 11.7434 7.0498C11.6516 6.1843 11.2973 5.36758 10.7281 4.70916C10.1589 4.05075 9.40193 3.58214 8.55879 3.36618C7.71565 3.15023 6.82664 3.19725 6.01099 3.50095C5.19533 3.80465 4.49205 4.3505 3.99547 5.06529C3.58136 5.66136 3.32751 6.35114 3.2546 7.06854C3.23047 7.306 3.03925 7.49999 2.80057 7.49999V7.49999Z" fill="black"/>
<circle cx="13.5438" cy="6.27004" r="0.45614" fill="black"/>
<circle cx="13.3603" cy="4.65823" r="0.45614" fill="black"/>
<circle cx="11.5492" cy="2.14449" r="0.45614" fill="black"/>
<circle cx="9.82998" cy="1.57015" r="0.45614" fill="black"/>
<circle cx="12.7456" cy="3.27444" r="0.45614" fill="black"/>
<circle cx="2.82456" cy="8.50675" r="0.45614" transform="rotate(-180 2.82456 8.50675)" fill="black"/>
<circle cx="5.76871" cy="12.0072" r="0.45614" transform="rotate(-180 5.76871 12.0072)" fill="black"/>
<circle cx="4.52329" cy="11.0949" r="0.45614" transform="rotate(-180 4.52329 11.0949)" fill="black"/>
<circle cx="3.52909" cy="9.90934" r="0.45614" transform="rotate(-180 3.52909 9.90934)" fill="black"/>
</svg>
